<?xml version="1.0"?>
<svg xmlns="http://www.w3.org/2000/svg" xmlns:xlink="http://www.w3.org/1999/xlink" xmlns:svgjs="http://svgjs.com/svgjs" version="1.1" width="512" height="512" x="0" y="0" viewBox="0 0 512 512" style="enable-background:new 0 0 512 512" xml:space="preserve" class=""><g><g xmlns="http://www.w3.org/2000/svg"><path d="m271 328.946c17.245-4.235 30-15.335 30-28.092s-12.755-23.857-30-28.092z" fill="#49aa26" data-original="#000000" style="" class=""/><path d="m256 91c-90.981 0-165 74.019-165 165s74.019 165 165 165 165-74.019 165-165-74.019-165-165-165zm75 209.854c0 28.98-25.809 53.212-60 58.786v16.36c0 8.291-6.709 15-15 15s-15-6.709-15-15v-16.36c-34.191-5.574-60-29.806-60-58.786 0-8.291 6.709-15 15-15s15 6.709 15 15c0 12.757 12.755 23.857 30 28.092v-59.306c-34.191-5.574-60-29.806-60-58.786s25.809-53.212 60-58.786v-16.214c0-8.291 6.709-15 15-15s15 6.709 15 15v16.214c34.191 5.574 60 29.806 60 58.786 0 8.291-6.709 15-15 15s-15-6.709-15-15c0-12.757-12.755-23.857-30-28.092v59.306c34.191 5.573 60 29.805 60 58.786z" fill="#49aa26" data-original="#000000" style="" class=""/><path d="m241 182.761c-17.245 4.235-30 15.335-30 28.092s12.755 23.857 30 28.092z" fill="#49aa26" data-original="#000000" style="" class=""/><path d="m256 0c-140.61 0-256 115.39-256 256s115.39 256 256 256 256-115.39 256-256-115.39-256-256-256zm0 451c-107.52 0-195-87.48-195-195s87.48-195 195-195 195 87.48 195 195-87.48 195-195 195z" fill="#49aa26" data-original="#000000" style="" class=""/></g></g></svg>
